<svg width="80" height="48" viewBox="0 0 80 48" fill="none" xmlns="http://www.w3.org/2000/svg">
<path d="M41.26 3.6L33.05 12.29C32.74 12.62 32.44 13.27 32.38 13.72L32.01 16.96C31.88 18.13 32.72 18.93 33.88 18.73L37.1 18.18C37.55 18.1 38.18 17.77 38.49 17.43L46.7 8.74C48.12 7.24 48.76 5.53 46.55 3.44C44.35 1.37 42.68 2.1 41.26 3.6Z" stroke="#292D32" stroke-width="1.5" stroke-miterlimit="10" stroke-linecap="round" stroke-linejoin="round"/>
<path d="M39.89 5.05C40.32 7.81 42.56 9.92 45.34 10.2" stroke="#292D32" stroke-width="1.5" stroke-miterlimit="10" stroke-linecap="round" stroke-linejoin="round"/>
<path d="M31 22H49" stroke="#292D32" stroke-width="1.5" stroke-miterlimit="10" stroke-linecap="round" stroke-linejoin="round"/>
<path d="M4.55 43.112C4.298 43.112 4.09267 43.0513 3.934 42.93C3.78467 42.8087 3.66333 42.6173 3.57 42.356L0.644 34.082C0.541333 33.7833 0.56 33.5313 0.7 33.326C0.849333 33.1207 1.09667 33.018 1.442 33.018C1.694 33.018 1.89 33.0787 2.03 33.2C2.17 33.312 2.282 33.494 2.366 33.746L4.886 41.222H4.326L6.958 33.76C7.05133 33.508 7.168 33.3213 7.308 33.2C7.448 33.0787 7.63 33.018 7.854 33.018C8.078 33.018 8.25533 33.0787 8.386 33.2C8.51667 33.3213 8.62867 33.5127 8.722 33.774L11.27 41.222H10.78L13.342 33.746C13.426 33.5033 13.538 33.3213 13.678 33.2C13.818 33.0787 14.0093 33.018 14.252 33.018C14.5507 33.018 14.77 33.1207 14.91 33.326C15.05 33.5313 15.0687 33.7833 14.966 34.082L12.012 42.37C11.9187 42.622 11.7973 42.8087 11.648 42.93C11.4987 43.0513 11.298 43.112 11.046 43.112C10.794 43.112 10.5933 43.0513 10.444 42.93C10.2947 42.8087 10.1733 42.6173 10.08 42.356L7.644 35.412H7.966L5.502 42.37C5.40867 42.622 5.28733 42.8087 5.138 42.93C4.998 43.0513 4.802 43.112 4.55 43.112ZM16.5853 43.112C16.296 43.112 16.072 43.0373 15.9133 42.888C15.764 42.7293 15.6893 42.5053 15.6893 42.216V36.924C15.6893 36.6347 15.764 36.4153 15.9133 36.266C16.0626 36.1167 16.2726 36.042 16.5433 36.042C16.814 36.042 17.024 36.1167 17.1733 36.266C17.3226 36.4153 17.3973 36.6347 17.3973 36.924V37.806H17.2573C17.388 37.246 17.6446 36.8213 18.0273 36.532C18.41 36.2427 18.9186 36.07 19.5533 36.014C19.7493 35.9953 19.9033 36.0467 20.0153 36.168C20.1366 36.28 20.2066 36.4573 20.2253 36.7C20.244 36.9333 20.188 37.1247 20.0573 37.274C19.936 37.414 19.7493 37.498 19.4973 37.526L19.1893 37.554C18.62 37.61 18.1906 37.7873 17.9013 38.086C17.612 38.3753 17.4673 38.786 17.4673 39.318V42.216C17.4673 42.5053 17.3926 42.7293 17.2433 42.888C17.094 43.0373 16.8746 43.112 16.5853 43.112ZM22.0397 43.098C21.7597 43.098 21.5451 43.014 21.3957 42.846C21.2464 42.678 21.1717 42.4447 21.1717 42.146V37.008C21.1717 36.7 21.2464 36.4667 21.3957 36.308C21.5451 36.14 21.7597 36.056 22.0397 36.056C22.3197 36.056 22.5344 36.14 22.6837 36.308C22.8424 36.4667 22.9217 36.7 22.9217 37.008V42.146C22.9217 42.4447 22.8471 42.678 22.6977 42.846C22.5484 43.014 22.3291 43.098 22.0397 43.098ZM22.0397 34.754C21.7131 34.754 21.4564 34.6747 21.2697 34.516C21.0924 34.348 21.0037 34.1193 21.0037 33.83C21.0037 33.5313 21.0924 33.3027 21.2697 33.144C21.4564 32.9853 21.7131 32.906 22.0397 32.906C22.3757 32.906 22.6324 32.9853 22.8097 33.144C22.9871 33.3027 23.0757 33.5313 23.0757 33.83C23.0757 34.1193 22.9871 34.348 22.8097 34.516C22.6324 34.6747 22.3757 34.754 22.0397 34.754ZM27.8761 43.14C27.2694 43.14 26.7607 43.0373 26.3501 42.832C25.9487 42.6267 25.6501 42.328 25.4541 41.936C25.2581 41.5347 25.1601 41.04 25.1601 40.452V37.47H24.4321C24.2081 37.47 24.0354 37.414 23.9141 37.302C23.7927 37.1807 23.7321 37.0173 23.7321 36.812C23.7321 36.5973 23.7927 36.434 23.9141 36.322C24.0354 36.21 24.2081 36.154 24.4321 36.154H25.1601V34.88C25.1601 34.5907 25.2347 34.3713 25.3841 34.222C25.5427 34.0727 25.7621 33.998 26.0421 33.998C26.3221 33.998 26.5367 34.0727 26.6861 34.222C26.8354 34.3713 26.9101 34.5907 26.9101 34.88V36.154H28.3941C28.6181 36.154 28.7907 36.21 28.9121 36.322C29.0334 36.434 29.0941 36.5973 29.0941 36.812C29.0941 37.0173 29.0334 37.1807 28.9121 37.302C28.7907 37.414 28.6181 37.47 28.3941 37.47H26.9101V40.354C26.9101 40.802 27.0081 41.138 27.2041 41.362C27.4001 41.586 27.7174 41.698 28.1561 41.698C28.3147 41.698 28.4547 41.684 28.5761 41.656C28.6974 41.628 28.8047 41.6093 28.8981 41.6C29.0101 41.5907 29.1034 41.628 29.1781 41.712C29.2527 41.7867 29.2901 41.9453 29.2901 42.188C29.2901 42.3747 29.2574 42.5427 29.1921 42.692C29.1361 42.832 29.0287 42.93 28.8701 42.986C28.7487 43.0233 28.5901 43.056 28.3941 43.084C28.1981 43.1213 28.0254 43.14 27.8761 43.14ZM33.4188 43.14C32.6441 43.14 31.9768 42.9953 31.4168 42.706C30.8568 42.4167 30.4228 42.006 30.1148 41.474C29.8161 40.942 29.6668 40.312 29.6668 39.584C29.6668 38.8747 29.8114 38.254 30.1008 37.722C30.3994 37.19 30.8054 36.7747 31.3188 36.476C31.8414 36.168 32.4341 36.014 33.0968 36.014C33.5821 36.014 34.0161 36.0933 34.3988 36.252C34.7908 36.4107 35.1221 36.6393 35.3928 36.938C35.6728 37.2367 35.8828 37.6007 36.0228 38.03C36.1721 38.45 36.2468 38.926 36.2468 39.458C36.2468 39.626 36.1861 39.7567 36.0648 39.85C35.9528 39.934 35.7894 39.976 35.5748 39.976H31.0808V38.968H35.0148L34.7908 39.178C34.7908 38.7487 34.7254 38.3893 34.5948 38.1C34.4734 37.8107 34.2914 37.5913 34.0488 37.442C33.8154 37.2833 33.5214 37.204 33.1668 37.204C32.7748 37.204 32.4388 37.2973 32.1588 37.484C31.8881 37.6613 31.6781 37.918 31.5288 38.254C31.3888 38.5807 31.3188 38.9727 31.3188 39.43V39.528C31.3188 40.2933 31.4961 40.8673 31.8508 41.25C32.2148 41.6233 32.7468 41.81 33.4468 41.81C33.6894 41.81 33.9601 41.782 34.2588 41.726C34.5668 41.6607 34.8561 41.5533 35.1268 41.404C35.3228 41.292 35.4954 41.2453 35.6448 41.264C35.7941 41.2733 35.9108 41.3247 35.9948 41.418C36.0881 41.5113 36.1441 41.628 36.1628 41.768C36.1814 41.8987 36.1534 42.034 36.0788 42.174C36.0134 42.314 35.8968 42.4353 35.7288 42.538C35.4021 42.7433 35.0241 42.8973 34.5948 43C34.1748 43.0933 33.7828 43.14 33.4188 43.14ZM44.7374 43.14C44.0374 43.14 43.4308 43.028 42.9174 42.804C42.4041 42.58 42.0074 42.272 41.7274 41.88C41.4568 41.4787 41.3214 41.012 41.3214 40.48C41.3214 40.1627 41.3634 39.8687 41.4474 39.598C41.5408 39.318 41.6714 39.0613 41.8394 38.828C42.0168 38.5853 42.2268 38.3613 42.4694 38.156C42.7214 37.9413 43.0061 37.7407 43.3234 37.554L43.7994 37.274L43.5474 37.652C43.1368 37.2413 42.8381 36.854 42.6514 36.49C42.4741 36.1167 42.3854 35.734 42.3854 35.342C42.3854 34.8753 42.4974 34.4647 42.7214 34.11C42.9454 33.7553 43.2628 33.48 43.6734 33.284C44.0841 33.088 44.5648 32.99 45.1154 32.99C45.8808 32.99 46.4874 33.186 46.9354 33.578C47.3834 33.9607 47.6074 34.4833 47.6074 35.146C47.6074 35.5007 47.5374 35.8367 47.3974 36.154C47.2574 36.4713 47.0334 36.7747 46.7254 37.064C46.4174 37.3533 46.0068 37.638 45.4934 37.918L45.5074 37.498L47.8874 40.032H47.5094C47.6308 39.8267 47.7381 39.6027 47.8314 39.36C47.9248 39.108 48.0041 38.842 48.0694 38.562C48.1441 38.2727 48.2001 37.974 48.2374 37.666C48.2748 37.4327 48.3541 37.26 48.4754 37.148C48.5968 37.0267 48.7694 36.966 48.9934 36.966C49.2361 36.966 49.4181 37.036 49.5394 37.176C49.6608 37.3067 49.7074 37.498 49.6794 37.75C49.6328 38.1887 49.5534 38.6087 49.4414 39.01C49.3388 39.402 49.2081 39.7707 49.0494 40.116C48.8908 40.452 48.7134 40.7647 48.5174 41.054L48.5034 40.62L49.8334 41.964C50.0108 42.1413 50.0994 42.3187 50.0994 42.496C50.0994 42.6733 50.0294 42.8227 49.8894 42.944C49.7588 43.056 49.5768 43.112 49.3434 43.112C49.1381 43.112 48.9701 43.0747 48.8394 43C48.7088 42.916 48.5641 42.7947 48.4054 42.636L47.5374 41.726H47.9434C47.5328 42.1647 47.0474 42.51 46.4874 42.762C45.9368 43.014 45.3534 43.14 44.7374 43.14ZM44.8354 41.754C45.2834 41.754 45.6801 41.67 46.0254 41.502C46.3801 41.3247 46.7021 41.0633 46.9914 40.718L46.9494 41.166L44.0654 38.184L44.7934 38.254L44.3874 38.492C44.0701 38.6787 43.8134 38.8653 43.6174 39.052C43.4214 39.2293 43.2768 39.4253 43.1834 39.64C43.0994 39.8453 43.0574 40.0787 43.0574 40.34C43.0574 40.7787 43.2114 41.124 43.5194 41.376C43.8274 41.628 44.2661 41.754 44.8354 41.754ZM45.1154 34.236C44.7794 34.236 44.5088 34.334 44.3034 34.53C44.0981 34.7167 43.9954 34.9733 43.9954 35.3C43.9954 35.4773 44.0234 35.6453 44.0794 35.804C44.1354 35.9533 44.2334 36.1213 44.3734 36.308C44.5134 36.4853 44.7048 36.7047 44.9474 36.966L44.5554 36.938C44.9474 36.714 45.2554 36.5133 45.4794 36.336C45.7128 36.1587 45.8808 35.9813 45.9834 35.804C46.0861 35.6267 46.1374 35.4307 46.1374 35.216C46.1374 34.8987 46.0441 34.656 45.8574 34.488C45.6708 34.32 45.4234 34.236 45.1154 34.236ZM58.7664 43.14C57.9918 43.14 57.3244 42.9953 56.7644 42.706C56.2044 42.4167 55.7704 42.006 55.4624 41.474C55.1638 40.942 55.0144 40.312 55.0144 39.584C55.0144 38.8747 55.1591 38.254 55.4484 37.722C55.7471 37.19 56.1531 36.7747 56.6664 36.476C57.1891 36.168 57.7818 36.014 58.4444 36.014C58.9298 36.014 59.3638 36.0933 59.7464 36.252C60.1384 36.4107 60.4698 36.6393 60.7404 36.938C61.0204 37.2367 61.2304 37.6007 61.3704 38.03C61.5198 38.45 61.5944 38.926 61.5944 39.458C61.5944 39.626 61.5338 39.7567 61.4124 39.85C61.3004 39.934 61.1371 39.976 60.9224 39.976H56.4284V38.968H60.3624L60.1384 39.178C60.1384 38.7487 60.0731 38.3893 59.9424 38.1C59.8211 37.8107 59.6391 37.5913 59.3964 37.442C59.1631 37.2833 58.8691 37.204 58.5144 37.204C58.1224 37.204 57.7864 37.2973 57.5064 37.484C57.2358 37.6613 57.0258 37.918 56.8764 38.254C56.7364 38.5807 56.6664 38.9727 56.6664 39.43V39.528C56.6664 40.2933 56.8438 40.8673 57.1984 41.25C57.5624 41.6233 58.0944 41.81 58.7944 41.81C59.0371 41.81 59.3078 41.782 59.6064 41.726C59.9144 41.6607 60.2038 41.5533 60.4744 41.404C60.6704 41.292 60.8431 41.2453 60.9924 41.264C61.1418 41.2733 61.2584 41.3247 61.3424 41.418C61.4358 41.5113 61.4918 41.628 61.5104 41.768C61.5291 41.8987 61.5011 42.034 61.4264 42.174C61.3611 42.314 61.2444 42.4353 61.0764 42.538C60.7498 42.7433 60.3718 42.8973 59.9424 43C59.5224 43.0933 59.1304 43.14 58.7664 43.14ZM65.6123 43.14C65.015 43.14 64.4876 42.9953 64.0303 42.706C63.5823 42.4167 63.2323 42.006 62.9803 41.474C62.7283 40.9327 62.6023 40.298 62.6023 39.57C62.6023 38.8327 62.7283 38.2027 62.9803 37.68C63.2323 37.148 63.5823 36.7373 64.0303 36.448C64.4876 36.1587 65.015 36.014 65.6123 36.014C66.1816 36.014 66.6763 36.154 67.0963 36.434C67.5256 36.714 67.815 37.0827 67.9643 37.54H67.8103V33.9C67.8103 33.6107 67.885 33.3913 68.0343 33.242C68.1836 33.0927 68.3983 33.018 68.6783 33.018C68.9583 33.018 69.173 33.0927 69.3223 33.242C69.481 33.3913 69.5603 33.6107 69.5603 33.9V42.216C69.5603 42.5053 69.4856 42.7293 69.3363 42.888C69.187 43.0373 68.9723 43.112 68.6923 43.112C68.4123 43.112 68.1976 43.0373 68.0483 42.888C67.899 42.7293 67.8243 42.5053 67.8243 42.216V41.124L67.9783 41.544C67.8383 42.0293 67.5536 42.4167 67.1243 42.706C66.695 42.9953 66.191 43.14 65.6123 43.14ZM66.1023 41.81C66.4476 41.81 66.751 41.726 67.0123 41.558C67.2736 41.39 67.4743 41.1427 67.6143 40.816C67.7636 40.48 67.8383 40.0647 67.8383 39.57C67.8383 38.8233 67.6796 38.268 67.3623 37.904C67.045 37.5307 66.625 37.344 66.1023 37.344C65.757 37.344 65.4536 37.428 65.1923 37.596C64.931 37.7547 64.7256 38.002 64.5763 38.338C64.4363 38.6647 64.3663 39.0753 64.3663 39.57C64.3663 40.3073 64.525 40.8673 64.8423 41.25C65.1596 41.6233 65.5796 41.81 66.1023 41.81ZM72.2428 43.098C71.9628 43.098 71.7482 43.014 71.5988 42.846C71.4495 42.678 71.3748 42.4447 71.3748 42.146V37.008C71.3748 36.7 71.4495 36.4667 71.5988 36.308C71.7482 36.14 71.9628 36.056 72.2428 36.056C72.5228 36.056 72.7375 36.14 72.8868 36.308C73.0455 36.4667 73.1248 36.7 73.1248 37.008V42.146C73.1248 42.4447 73.0502 42.678 72.9008 42.846C72.7515 43.014 72.5322 43.098 72.2428 43.098ZM72.2428 34.754C71.9162 34.754 71.6595 34.6747 71.4728 34.516C71.2955 34.348 71.2068 34.1193 71.2068 33.83C71.2068 33.5313 71.2955 33.3027 71.4728 33.144C71.6595 32.9853 71.9162 32.906 72.2428 32.906C72.5788 32.906 72.8355 32.9853 73.0128 33.144C73.1902 33.3027 73.2788 33.5313 73.2788 33.83C73.2788 34.1193 73.1902 34.348 73.0128 34.516C72.8355 34.6747 72.5788 34.754 72.2428 34.754ZM78.0792 43.14C77.4725 43.14 76.9639 43.0373 76.5532 42.832C76.1519 42.6267 75.8532 42.328 75.6572 41.936C75.4612 41.5347 75.3632 41.04 75.3632 40.452V37.47H74.6352C74.4112 37.47 74.2385 37.414 74.1172 37.302C73.9959 37.1807 73.9352 37.0173 73.9352 36.812C73.9352 36.5973 73.9959 36.434 74.1172 36.322C74.2385 36.21 74.4112 36.154 74.6352 36.154H75.3632V34.88C75.3632 34.5907 75.4379 34.3713 75.5872 34.222C75.7459 34.0727 75.9652 33.998 76.2452 33.998C76.5252 33.998 76.7399 34.0727 76.8892 34.222C77.0385 34.3713 77.1132 34.5907 77.1132 34.88V36.154H78.5972C78.8212 36.154 78.9939 36.21 79.1152 36.322C79.2365 36.434 79.2972 36.5973 79.2972 36.812C79.2972 37.0173 79.2365 37.1807 79.1152 37.302C78.9939 37.414 78.8212 37.47 78.5972 37.47H77.1132V40.354C77.1132 40.802 77.2112 41.138 77.4072 41.362C77.6032 41.586 77.9205 41.698 78.3592 41.698C78.5179 41.698 78.6579 41.684 78.7792 41.656C78.9005 41.628 79.0079 41.6093 79.1012 41.6C79.2132 41.5907 79.3065 41.628 79.3812 41.712C79.4559 41.7867 79.4932 41.9453 79.4932 42.188C79.4932 42.3747 79.4605 42.5427 79.3952 42.692C79.3392 42.832 79.2319 42.93 79.0732 42.986C78.9519 43.0233 78.7932 43.056 78.5972 43.084C78.4012 43.1213 78.2285 43.14 78.0792 43.14Z" fill="#3F3F3F"/>
</svg>
