<svg width="62" height="48" viewBox="0 0 62 48" fill="none" xmlns="http://www.w3.org/2000/svg">
<path d="M37.602 18.67L35.462 14.4L33.322 18.67" stroke="#292D32" stroke-width="1.5" stroke-linecap="round" stroke-linejoin="round"/>
<path d="M33.712 17.91H37.232" stroke="#292D32" stroke-width="1.5" stroke-linecap="round" stroke-linejoin="round"/>
<path d="M35.462 22C32.662 22 30.382 19.73 30.382 16.92C30.382 14.12 32.652 11.84 35.462 11.84C38.262 11.84 40.542 14.11 40.542 16.92C40.542 19.73 38.272 22 35.462 22Z" stroke="#292D32" stroke-width="1.5" stroke-linecap="round" stroke-linejoin="round"/>
<path d="M23.562 2H27.482C29.552 2 30.552 3.00002 30.502 5.02002V8.94C30.552 11.01 29.552 12.01 27.482 11.96H23.562C21.542 12 20.542 11 20.542 8.92999V5.01001C20.542 3.00001 21.542 2 23.562 2Z" stroke="#292D32" stroke-width="1.5" stroke-linecap="round" stroke-linejoin="round"/>
<path d="M27.5519 5.84998H23.4919" stroke="#292D32" stroke-width="1.5" stroke-linecap="round" stroke-linejoin="round"/>
<path d="M25.512 5.16998V5.84998" stroke="#292D32" stroke-width="1.5" stroke-linecap="round" stroke-linejoin="round"/>
<path d="M26.5319 5.84003C26.5319 7.59003 25.1619 9.01001 23.4819 9.01001" stroke="#292D32" stroke-width="1.5" stroke-linecap="round" stroke-linejoin="round"/>
<path d="M27.5519 9.01001C26.8219 9.01001 26.1619 8.62 25.7019 8" stroke="#292D32" stroke-width="1.5" stroke-linecap="round" stroke-linejoin="round"/>
<path d="M20.542 15C20.542 18.87 23.672 22 27.542 22L26.492 20.25" stroke="#292D32" stroke-width="1.5" stroke-linecap="round" stroke-linejoin="round"/>
<path d="M40.542 9C40.542 5.13 37.412 2 33.542 2L34.592 3.75" stroke="#292D32" stroke-width="1.5" stroke-linecap="round" stroke-linejoin="round"/>
<path d="M4.39599 43.112C4.10666 43.112 3.88266 43.0327 3.72399 42.874C3.57466 42.706 3.49999 42.4773 3.49999 42.188V34.628H0.769992C0.527326 34.628 0.335992 34.5627 0.195992 34.432C0.0653255 34.292 -7.81287e-06 34.1053 -7.81287e-06 33.872C-7.81287e-06 33.6293 0.0653255 33.4473 0.195992 33.326C0.335992 33.1953 0.527326 33.13 0.769992 33.13H8.02199C8.26466 33.13 8.45133 33.1953 8.58199 33.326C8.72199 33.4473 8.79199 33.6293 8.79199 33.872C8.79199 34.1053 8.72199 34.292 8.58199 34.432C8.45133 34.5627 8.26466 34.628 8.02199 34.628H5.29199V42.188C5.29199 42.4773 5.21733 42.706 5.06799 42.874C4.91866 43.0327 4.69466 43.112 4.39599 43.112ZM9.44955 43.112C9.16022 43.112 8.93622 43.0373 8.77755 42.888C8.62822 42.7293 8.55355 42.5053 8.55355 42.216V36.924C8.55355 36.6347 8.62822 36.4153 8.77755 36.266C8.92689 36.1167 9.13689 36.042 9.40755 36.042C9.67822 36.042 9.88822 36.1167 10.0376 36.266C10.1869 36.4153 10.2616 36.6347 10.2616 36.924V37.806H10.1216C10.2522 37.246 10.5089 36.8213 10.8916 36.532C11.2742 36.2427 11.7829 36.07 12.4176 36.014C12.6136 35.9953 12.7676 36.0467 12.8796 36.168C13.0009 36.28 13.0709 36.4573 13.0896 36.7C13.1082 36.9333 13.0522 37.1247 12.9216 37.274C12.8002 37.414 12.6136 37.498 12.3616 37.526L12.0536 37.554C11.4842 37.61 11.0549 37.7873 10.7656 38.086C10.4762 38.3753 10.3316 38.786 10.3316 39.318V42.216C10.3316 42.5053 10.2569 42.7293 10.1076 42.888C9.95822 43.0373 9.73889 43.112 9.44955 43.112ZM16.2216 43.14C15.727 43.14 15.2836 43.0467 14.8916 42.86C14.509 42.664 14.2056 42.4027 13.9816 42.076C13.767 41.7493 13.6596 41.3807 13.6596 40.97C13.6596 40.466 13.7903 40.0693 14.0516 39.78C14.313 39.4813 14.7376 39.2667 15.3256 39.136C15.9136 39.0053 16.7023 38.94 17.6916 38.94H18.3916V39.948H17.7056C17.127 39.948 16.665 39.976 16.3196 40.032C15.9743 40.088 15.727 40.186 15.5776 40.326C15.4376 40.4567 15.3676 40.6433 15.3676 40.886C15.3676 41.194 15.475 41.446 15.6896 41.642C15.9043 41.838 16.203 41.936 16.5856 41.936C16.8936 41.936 17.1643 41.866 17.3976 41.726C17.6403 41.5767 17.8316 41.376 17.9716 41.124C18.1116 40.872 18.1816 40.5827 18.1816 40.256V38.646C18.1816 38.1793 18.079 37.8433 17.8736 37.638C17.6683 37.4327 17.323 37.33 16.8376 37.33C16.567 37.33 16.273 37.3627 15.9556 37.428C15.6476 37.4933 15.321 37.6053 14.9756 37.764C14.7983 37.848 14.6396 37.8713 14.4996 37.834C14.369 37.7967 14.2663 37.722 14.1916 37.61C14.117 37.4887 14.0796 37.358 14.0796 37.218C14.0796 37.078 14.117 36.9427 14.1916 36.812C14.2663 36.672 14.3923 36.5693 14.5696 36.504C14.999 36.3267 15.4096 36.2007 15.8016 36.126C16.203 36.0513 16.567 36.014 16.8936 36.014C17.5656 36.014 18.1163 36.1167 18.5456 36.322C18.9843 36.5273 19.311 36.84 19.5256 37.26C19.7403 37.6707 19.8476 38.2027 19.8476 38.856V42.216C19.8476 42.5053 19.7776 42.7293 19.6376 42.888C19.4976 43.0373 19.297 43.112 19.0356 43.112C18.7743 43.112 18.569 43.0373 18.4196 42.888C18.2796 42.7293 18.2096 42.5053 18.2096 42.216V41.544H18.3216C18.2563 41.8707 18.1256 42.1553 17.9296 42.398C17.743 42.6313 17.505 42.8133 17.2156 42.944C16.9263 43.0747 16.595 43.14 16.2216 43.14ZM22.4919 43.112C22.2119 43.112 21.9972 43.0373 21.8479 42.888C21.6985 42.7293 21.6239 42.5053 21.6239 42.216V36.924C21.6239 36.6347 21.6985 36.4153 21.8479 36.266C21.9972 36.1167 22.2072 36.042 22.4779 36.042C22.7485 36.042 22.9585 36.1167 23.1079 36.266C23.2572 36.4153 23.3319 36.6347 23.3319 36.924V37.876L23.1779 37.526C23.3832 37.0313 23.7005 36.658 24.1299 36.406C24.5685 36.1447 25.0632 36.014 25.6139 36.014C26.1645 36.014 26.6172 36.1167 26.9719 36.322C27.3265 36.5273 27.5925 36.84 27.7699 37.26C27.9472 37.6707 28.0359 38.1933 28.0359 38.828V42.216C28.0359 42.5053 27.9612 42.7293 27.8119 42.888C27.6625 43.0373 27.4479 43.112 27.1679 43.112C26.8879 43.112 26.6685 43.0373 26.5099 42.888C26.3605 42.7293 26.2859 42.5053 26.2859 42.216V38.912C26.2859 38.38 26.1832 37.9927 25.9779 37.75C25.7819 37.5073 25.4739 37.386 25.0539 37.386C24.5405 37.386 24.1299 37.5493 23.8219 37.876C23.5232 38.1933 23.3739 38.618 23.3739 39.15V42.216C23.3739 42.8133 23.0799 43.112 22.4919 43.112ZM32.3193 43.14C31.918 43.14 31.4933 43.098 31.0453 43.014C30.5973 42.93 30.196 42.7853 29.8413 42.58C29.692 42.4867 29.5847 42.3793 29.5193 42.258C29.4633 42.1273 29.44 42.0013 29.4493 41.88C29.468 41.7493 29.5147 41.6373 29.5893 41.544C29.6733 41.4507 29.776 41.39 29.8973 41.362C30.028 41.334 30.168 41.3573 30.3173 41.432C30.6907 41.6093 31.0407 41.7353 31.3673 41.81C31.694 41.8753 32.016 41.908 32.3333 41.908C32.7813 41.908 33.1127 41.8333 33.3273 41.684C33.5513 41.5253 33.6633 41.32 33.6633 41.068C33.6633 40.8533 33.5887 40.69 33.4393 40.578C33.2993 40.4567 33.0847 40.368 32.7953 40.312L31.3953 40.046C30.8167 39.934 30.3733 39.724 30.0653 39.416C29.7667 39.0987 29.6173 38.6927 29.6173 38.198C29.6173 37.75 29.7387 37.3627 29.9813 37.036C30.2333 36.7093 30.5787 36.4573 31.0173 36.28C31.456 36.1027 31.96 36.014 32.5293 36.014C32.94 36.014 33.3227 36.0607 33.6773 36.154C34.0413 36.238 34.3913 36.3733 34.7273 36.56C34.8673 36.6347 34.9607 36.7327 35.0073 36.854C35.0633 36.9753 35.0773 37.1013 35.0493 37.232C35.0213 37.3533 34.9653 37.4653 34.8813 37.568C34.7973 37.6613 34.69 37.722 34.5593 37.75C34.438 37.7687 34.298 37.7407 34.1393 37.666C33.85 37.5167 33.57 37.4093 33.2993 37.344C33.038 37.2787 32.786 37.246 32.5433 37.246C32.086 37.246 31.7453 37.3253 31.5213 37.484C31.3067 37.6427 31.1993 37.8527 31.1993 38.114C31.1993 38.31 31.2647 38.4733 31.3953 38.604C31.526 38.7347 31.7267 38.8233 31.9973 38.87L33.3973 39.136C34.004 39.248 34.4613 39.4533 34.7693 39.752C35.0867 40.0507 35.2453 40.452 35.2453 40.956C35.2453 41.6373 34.9793 42.174 34.4473 42.566C33.9153 42.9487 33.206 43.14 32.3193 43.14ZM38.9873 43.14C38.2126 43.14 37.6293 42.9207 37.2373 42.482C36.8453 42.034 36.6493 41.3807 36.6493 40.522V33.9C36.6493 33.6107 36.7239 33.3913 36.8733 33.242C37.0226 33.0927 37.2373 33.018 37.5173 33.018C37.7973 33.018 38.0119 33.0927 38.1613 33.242C38.3199 33.3913 38.3993 33.6107 38.3993 33.9V40.438C38.3993 40.8673 38.4879 41.1847 38.6653 41.39C38.8519 41.5953 39.1133 41.698 39.4493 41.698C39.5239 41.698 39.5939 41.698 39.6593 41.698C39.7246 41.6887 39.7899 41.6793 39.8553 41.67C39.9859 41.6513 40.0746 41.6887 40.1213 41.782C40.1679 41.866 40.1913 42.0433 40.1913 42.314C40.1913 42.5473 40.1446 42.7293 40.0513 42.86C39.9579 42.9907 39.8039 43.07 39.5893 43.098C39.4959 43.1073 39.3979 43.1167 39.2953 43.126C39.1926 43.1353 39.0899 43.14 38.9873 43.14ZM43.374 43.14C42.8793 43.14 42.436 43.0467 42.044 42.86C41.6613 42.664 41.358 42.4027 41.134 42.076C40.9193 41.7493 40.812 41.3807 40.812 40.97C40.812 40.466 40.9426 40.0693 41.204 39.78C41.4653 39.4813 41.89 39.2667 42.478 39.136C43.066 39.0053 43.8546 38.94 44.844 38.94H45.544V39.948H44.858C44.2793 39.948 43.8173 39.976 43.472 40.032C43.1266 40.088 42.8793 40.186 42.73 40.326C42.59 40.4567 42.52 40.6433 42.52 40.886C42.52 41.194 42.6273 41.446 42.842 41.642C43.0566 41.838 43.3553 41.936 43.738 41.936C44.046 41.936 44.3166 41.866 44.55 41.726C44.7926 41.5767 44.984 41.376 45.124 41.124C45.264 40.872 45.334 40.5827 45.334 40.256V38.646C45.334 38.1793 45.2313 37.8433 45.026 37.638C44.8206 37.4327 44.4753 37.33 43.99 37.33C43.7193 37.33 43.4253 37.3627 43.108 37.428C42.8 37.4933 42.4733 37.6053 42.128 37.764C41.9506 37.848 41.792 37.8713 41.652 37.834C41.5213 37.7967 41.4186 37.722 41.344 37.61C41.2693 37.4887 41.232 37.358 41.232 37.218C41.232 37.078 41.2693 36.9427 41.344 36.812C41.4186 36.672 41.5446 36.5693 41.722 36.504C42.1513 36.3267 42.562 36.2007 42.954 36.126C43.3553 36.0513 43.7193 36.014 44.046 36.014C44.718 36.014 45.2686 36.1167 45.698 36.322C46.1366 36.5273 46.4633 36.84 46.678 37.26C46.8926 37.6707 47 38.2027 47 38.856V42.216C47 42.5053 46.93 42.7293 46.79 42.888C46.65 43.0373 46.4493 43.112 46.188 43.112C45.9266 43.112 45.7213 43.0373 45.572 42.888C45.432 42.7293 45.362 42.5053 45.362 42.216V41.544H45.474C45.4086 41.8707 45.278 42.1553 45.082 42.398C44.8953 42.6313 44.6573 42.8133 44.368 42.944C44.0786 43.0747 43.7473 43.14 43.374 43.14ZM51.9122 43.14C51.3055 43.14 50.7969 43.0373 50.3862 42.832C49.9849 42.6267 49.6862 42.328 49.4902 41.936C49.2942 41.5347 49.1962 41.04 49.1962 40.452V37.47H48.4682C48.2442 37.47 48.0715 37.414 47.9502 37.302C47.8289 37.1807 47.7682 37.0173 47.7682 36.812C47.7682 36.5973 47.8289 36.434 47.9502 36.322C48.0715 36.21 48.2442 36.154 48.4682 36.154H49.1962V34.88C49.1962 34.5907 49.2709 34.3713 49.4202 34.222C49.5789 34.0727 49.7982 33.998 50.0782 33.998C50.3582 33.998 50.5729 34.0727 50.7222 34.222C50.8715 34.3713 50.9462 34.5907 50.9462 34.88V36.154H52.4302C52.6542 36.154 52.8269 36.21 52.9482 36.322C53.0695 36.434 53.1302 36.5973 53.1302 36.812C53.1302 37.0173 53.0695 37.1807 52.9482 37.302C52.8269 37.414 52.6542 37.47 52.4302 37.47H50.9462V40.354C50.9462 40.802 51.0442 41.138 51.2402 41.362C51.4362 41.586 51.7535 41.698 52.1922 41.698C52.3509 41.698 52.4909 41.684 52.6122 41.656C52.7335 41.628 52.8409 41.6093 52.9342 41.6C53.0462 41.5907 53.1395 41.628 53.2142 41.712C53.2889 41.7867 53.3262 41.9453 53.3262 42.188C53.3262 42.3747 53.2935 42.5427 53.2282 42.692C53.1722 42.832 53.0649 42.93 52.9062 42.986C52.7849 43.0233 52.6262 43.056 52.4302 43.084C52.2342 43.1213 52.0615 43.14 51.9122 43.14ZM57.4549 43.14C56.6802 43.14 56.0129 42.9953 55.4529 42.706C54.8929 42.4167 54.4589 42.006 54.1509 41.474C53.8522 40.942 53.7029 40.312 53.7029 39.584C53.7029 38.8747 53.8476 38.254 54.1369 37.722C54.4356 37.19 54.8416 36.7747 55.3549 36.476C55.8776 36.168 56.4702 36.014 57.1329 36.014C57.6182 36.014 58.0522 36.0933 58.4349 36.252C58.8269 36.4107 59.1582 36.6393 59.4289 36.938C59.7089 37.2367 59.9189 37.6007 60.0589 38.03C60.2082 38.45 60.2829 38.926 60.2829 39.458C60.2829 39.626 60.2222 39.7567 60.1009 39.85C59.9889 39.934 59.8256 39.976 59.6109 39.976H55.1169V38.968H59.0509L58.8269 39.178C58.8269 38.7487 58.7616 38.3893 58.6309 38.1C58.5096 37.8107 58.3276 37.5913 58.0849 37.442C57.8516 37.2833 57.5576 37.204 57.2029 37.204C56.8109 37.204 56.4749 37.2973 56.1949 37.484C55.9242 37.6613 55.7142 37.918 55.5649 38.254C55.4249 38.5807 55.3549 38.9727 55.3549 39.43V39.528C55.3549 40.2933 55.5322 40.8673 55.8869 41.25C56.2509 41.6233 56.7829 41.81 57.4829 41.81C57.7256 41.81 57.9962 41.782 58.2949 41.726C58.6029 41.6607 58.8922 41.5533 59.1629 41.404C59.3589 41.292 59.5316 41.2453 59.6809 41.264C59.8302 41.2733 59.9469 41.3247 60.0309 41.418C60.1242 41.5113 60.1802 41.628 60.1989 41.768C60.2176 41.8987 60.1896 42.034 60.1149 42.174C60.0496 42.314 59.9329 42.4353 59.7649 42.538C59.4382 42.7433 59.0602 42.8973 58.6309 43C58.2109 43.0933 57.8189 43.14 57.4549 43.14Z" fill="#3F3F3F"/>
</svg>
